<svg version="1.2" xmlns="http://www.w3.org/2000/svg" viewBox="0 0 40 40" width="40" height="40">
	<title>Telephone</title>
	<style>
		.s0 { fill: #ffffff } 
	</style>
	<path id="Telephone" fill-rule="evenodd" class="s0" d="m35.6 29.6c0.8 0.9 1.3 1.8 1.3 2.9 0 1-0.5 2-1.3 2.8q-0.5 0.6-1 1.1c-0.6 0.5-1 0.9-1.5 1.4q0 0.1 0 0.1-1.9 2-4.8 2-0.2 0-0.5 0c-2.8-0.2-5.3-1.2-7.2-2.1-5-2.4-9.3-5.8-12.9-10.1-3-3.6-4.9-6.9-6.3-10.5-0.5-1.5-1.2-3.7-1-6.1q0.2-2.2 1.8-3.8l2.8-2.9q0 0 0 0c0.8-0.8 1.8-1.2 2.8-1.2 1 0 1.9 0.4 2.7 1.2q0.8 0.8 1.6 1.6 0.3 0.4 0.7 0.7l2.3 2.3c1.7 1.7 1.7 3.9 0 5.7q-0.4 0.3-0.7 0.7-0.9 0.9-1.9 1.8c0.5 1.2 1.2 2.3 2.2 3.6 2.1 2.6 4.3 4.6 6.8 6.1q0.3 0.2 0.8 0.5 0.3 0.1 0.6 0.3l2.6-2.6c0.8-0.8 1.8-1.3 2.8-1.3 1 0 2 0.5 2.8 1.3zm-1.6 1.6l-4.5-4.6q0 0 0 0c-0.3-0.3-0.7-0.6-1.2-0.6-0.5 0-1 0.3-1.3 0.6l-2.8 2.8c-0.1 0.2-0.5 0.6-1.2 0.6q-0.4 0-0.8-0.2-0.1 0-0.1-0.1-0.4-0.2-0.8-0.4-0.5-0.2-1.1-0.5c-2.6-1.7-5-3.9-7.3-6.7-1.2-1.6-2-2.9-2.6-4.3q0-0.1 0-0.1c-0.2-0.5-0.3-1.2 0.4-1.9q0 0 0 0c0.7-0.7 1.4-1.3 2.1-2q0.3-0.4 0.7-0.7c0.9-0.9 0.9-1.7 0-2.6l-2.2-2.2q-0.4-0.4-0.8-0.8-0.8-0.8-1.5-1.5 0 0 0 0c-0.3-0.3-0.7-0.6-1.2-0.6q-0.7 0-1.3 0.6l-2.8 2.8q-1 1-1.1 2.4c-0.1 1.5 0.1 3.1 0.9 5.2 1.2 3.3 3.1 6.5 5.9 9.8 3.4 4.1 7.5 7.3 12.2 9.6 1.7 0.8 3.9 1.7 6.4 1.9q0.2 0 0.3 0c1.3 0 2.3-0.4 3.1-1.3q0.8-0.9 1.6-1.7c0.4-0.3 0.7-0.6 1-1q0 0 0 0 1.3-1.3 0-2.5zm-13.5-22.3c0.1-0.6 0.6-1 1.2-0.9 2.6 0.5 5 1.7 6.9 3.6 1.9 1.9 3.1 4.2 3.6 6.8 0.1 0.7-0.3 1.2-1 1.3q0 0-0.1 0c-0.6 0-1-0.3-1.1-0.9-0.4-2.1-1.4-4.1-3-5.7-1.5-1.5-3.5-2.5-5.7-2.9-0.6-0.1-1-0.7-0.8-1.3zm17.8 10.5q-0.1 0-0.2 0c-0.5 0-1-0.4-1.1-0.9-0.6-3.8-2.4-7.3-5.2-10.1-2.8-2.8-6.3-4.6-10.1-5.3-0.6-0.1-1-0.6-0.9-1.2 0.1-0.6 0.6-1.1 1.2-0.9 4.3 0.7 8.2 2.7 11.3 5.8 3.2 3.1 5.2 7 5.9 11.3 0.1 0.6-0.3 1.2-0.9 1.3z"/>
</svg>